<svg id="Layer_1" viewBox="0 0 64 64" xmlns="http://www.w3.org/2000/svg" data-name="Layer 1" width="300" height="300" version="1.1" xmlns:xlink="http://www.w3.org/1999/xlink" xmlns:svgjs="http://svgjs.dev/svgjs"><g width="100%" height="100%" transform="matrix(1,0,0,1,0,0)"><path d="m17.085 25.422h-7.27c-.552 0-1 .448-1 1v6.738c0 .552.448 1 1 1h7.27c.552 0 1-.448 1-1v-6.738c0-.552-.448-1-1-1zm-1 6.738h-5.27v-4.738h5.27z" fill="#ffffff" fill-opacity="1" data-original-color="#000000ff" stroke="none" stroke-opacity="1"/><path d="m29.452 25.422h-7.27c-.552 0-1 .448-1 1v6.738c0 .552.448 1 1 1h7.27c.552 0 1-.448 1-1v-6.738c0-.552-.448-1-1-1zm-1 6.738h-5.27v-4.738h5.27z" fill="#ffffff" fill-opacity="1" data-original-color="#000000ff" stroke="none" stroke-opacity="1"/><path d="m41.818 25.422h-7.27c-.552 0-1 .448-1 1v6.738c0 .552.448 1 1 1h7.27c.552 0 1-.448 1-1v-6.738c0-.552-.448-1-1-1zm-1 6.738h-5.27v-4.738h5.27z" fill="#ffffff" fill-opacity="1" data-original-color="#000000ff" stroke="none" stroke-opacity="1"/><path d="m54.185 25.422h-7.27c-.552 0-1 .448-1 1v6.738c0 .552.448 1 1 1h7.27c.552 0 1-.448 1-1v-6.738c0-.552-.448-1-1-1zm-1 6.738h-5.27v-4.738h5.27z" fill="#ffffff" fill-opacity="1" data-original-color="#000000ff" stroke="none" stroke-opacity="1"/><path d="m17.085 36.741h-7.27c-.552 0-1 .448-1 1v6.738c0 .552.448 1 1 1h7.27c.552 0 1-.448 1-1v-6.738c0-.552-.448-1-1-1zm-1 6.738h-5.27v-4.738h5.27z" fill="#ffffff" fill-opacity="1" data-original-color="#000000ff" stroke="none" stroke-opacity="1"/><path d="m29.452 36.741h-7.27c-.552 0-1 .448-1 1v6.738c0 .552.448 1 1 1h7.27c.552 0 1-.448 1-1v-6.738c0-.552-.448-1-1-1zm-1 6.738h-5.27v-4.738h5.27z" fill="#ffffff" fill-opacity="1" data-original-color="#000000ff" stroke="none" stroke-opacity="1"/><path d="m41.818 36.741h-7.27c-.552 0-1 .448-1 1v6.738c0 .552.448 1 1 1h7.27c.552 0 1-.448 1-1v-6.738c0-.552-.448-1-1-1zm-1 6.738h-5.27v-4.738h5.27z" fill="#ffffff" fill-opacity="1" data-original-color="#000000ff" stroke="none" stroke-opacity="1"/><path d="m54.185 36.741h-7.27c-.552 0-1 .448-1 1v6.738c0 .552.448 1 1 1h7.27c.552 0 1-.448 1-1v-6.738c0-.552-.448-1-1-1zm-1 6.738h-5.27v-4.738h5.27z" fill="#ffffff" fill-opacity="1" data-original-color="#000000ff" stroke="none" stroke-opacity="1"/><path d="m17.085 48.061h-7.27c-.552 0-1 .448-1 1v6.738c0 .552.448 1 1 1h7.27c.552 0 1-.448 1-1v-6.738c0-.552-.448-1-1-1zm-1 6.738h-5.27v-4.738h5.27z" fill="#ffffff" fill-opacity="1" data-original-color="#000000ff" stroke="none" stroke-opacity="1"/><path d="m29.452 48.061h-7.27c-.552 0-1 .448-1 1v6.738c0 .552.448 1 1 1h7.27c.552 0 1-.448 1-1v-6.738c0-.552-.448-1-1-1zm-1 6.738h-5.27v-4.738h5.27z" fill="#ffffff" fill-opacity="1" data-original-color="#000000ff" stroke="none" stroke-opacity="1"/><path d="m41.818 48.061h-7.27c-.552 0-1 .448-1 1v6.738c0 .552.448 1 1 1h7.27c.552 0 1-.448 1-1v-6.738c0-.552-.448-1-1-1zm-1 6.738h-5.27v-4.738h5.27z" fill="#ffffff" fill-opacity="1" data-original-color="#000000ff" stroke="none" stroke-opacity="1"/><path d="m54.185 48.061h-7.27c-.552 0-1 .448-1 1v6.738c0 .552.448 1 1 1h7.27c.552 0 1-.448 1-1v-6.738c0-.552-.448-1-1-1zm-1 6.738h-5.27v-4.738h5.27z" fill="#ffffff" fill-opacity="1" data-original-color="#000000ff" stroke="none" stroke-opacity="1"/><path d="m57.06 7.71h-5.125v-3.123c0-1.405-1.143-2.547-2.547-2.547h-2.12c-1.405 0-2.547 1.143-2.547 2.547v3.123h-25.445v-3.123c0-1.405-1.143-2.547-2.547-2.547h-2.12c-1.405 0-2.547 1.143-2.547 2.547v3.123h-5.562c-2.724 0-4.94 2.221-4.94 4.95v44.36c0 2.724 2.216 4.94 4.94 4.94h50.56c2.724 0 4.94-2.216 4.94-4.94v-44.36c0-2.729-2.216-4.95-4.94-4.95zm-10.34-3.123c0-.302.246-.547.547-.547h2.12c.302 0 .547.246.547.547v8.257c0 .302-.246.547-.547.547h-2.12c-.302 0-.547-.246-.547-.547zm-32.659 0c0-.302.246-.547.547-.547h2.12c.302 0 .547.246.547.547v8.257c0 .302-.246.547-.547.547h-2.12c-.302 0-.547-.246-.547-.547zm-7.561 5.123h5.561v3.134c0 1.405 1.143 2.547 2.547 2.547h2.12c1.405 0 2.547-1.143 2.547-2.547v-3.131h25.444v3.131c0 1.405 1.143 2.547 2.547 2.547h2.12c1.405 0 2.547-1.143 2.547-2.547v-3.134h5.125c1.621 0 2.94 1.323 2.94 2.95v7.522h-56.438v-7.522c0-1.627 1.319-2.95 2.94-2.95zm50.56 50.25h-50.56c-1.621 0-2.94-1.319-2.94-2.94v-34.838h56.44v34.838c0 1.621-1.319 2.94-2.94 2.94z" fill="#ffffff" fill-opacity="1" data-original-color="#000000ff" stroke="none" stroke-opacity="1"/></g></svg>